<svg width="355" height="147" viewBox="0 0 355 147" fill="none" xmlns="http://www.w3.org/2000/svg">
<path d="M61 34H94.5C100.5 35 109.5 40 109.5 52C109.5 61.2 109.5 80.5 109.5 89C109.833 93.6667 113.9 103.3 127.5 104.5C144.5 106 150.5 111 153.5 114.5C155.9 117.3 158.167 120 159 121" stroke="#C9C9C9" stroke-opacity="0.7"/>
<path d="M61 34H94.5C100.5 35 109.5 40 109.5 52C109.5 61.2 109.5 80.5 109.5 89C109.833 93.6667 113.9 103.3 127.5 104.5C144.5 106 150.5 111 153.5 114.5C155.9 117.3 158.167 120 159 121" stroke="url(#paint0_linear_1_158)"/>
<path d="M294 34H260.5C254.5 35 245.5 40 245.5 52C245.5 61.2 245.5 80.5 245.5 89C245.167 93.6667 241.1 103.3 227.5 104.5C210.5 106 204.5 111 201.5 114.5C199.1 117.3 196.833 120 196 121" stroke="#C9C9C9" stroke-opacity="0.7"/>
<path d="M294 34H260.5C254.5 35 245.5 40 245.5 52C245.5 61.2 245.5 80.5 245.5 89C245.167 93.6667 241.1 103.3 227.5 104.5C210.5 106 204.5 111 201.5 114.5C199.1 117.3 196.833 120 196 121" stroke="url(#paint1_linear_1_158)"/>
<rect y="21" width="61" height="25" rx="12.5" fill="url(#paint2_linear_1_158)"/>
<rect x="0.5" y="21.5" width="60" height="24" rx="12" stroke="#DCDCDC" stroke-opacity="0.5"/>
<circle cx="18" cy="33" r="8" fill="white"/>
<circle cx="18" cy="33" r="7.5" stroke="#DCDCDC" stroke-opacity="0.5"/>
<g clip-path="url(#clip0_1_158)">
<path d="M15.1032 34.3016C15.1032 34.881 14.6349 35.3492 14.0556 35.3492C13.4762 35.3492 13.0079 34.881 13.0079 34.3016C13.0079 33.7222 13.4762 33.254 14.0556 33.254H15.1031L15.1032 34.3016ZM15.627 34.3016C15.627 33.7222 16.0952 33.254 16.6746 33.254C17.254 33.254 17.7222 33.7222 17.7222 34.3016V36.9206C17.7222 37.5 17.254 37.9683 16.6746 37.9683C16.0953 37.9683 15.627 37.5 15.627 36.9206V34.3016Z" fill="#E01E5A"/>
<path d="M16.6746 30.0952C16.0952 30.0952 15.627 29.627 15.627 29.0476C15.627 28.4682 16.0953 28 16.6746 28C17.2539 28 17.7222 28.4682 17.7222 29.0476V30.0953L16.6746 30.0952ZM16.6746 30.627C17.254 30.627 17.7222 31.0952 17.7222 31.6746C17.7222 32.254 17.254 32.7222 16.6746 32.7222H14.0477C13.4682 32.7222 13 32.254 13 31.6746C13 31.0953 13.4682 30.627 14.0476 30.627H16.6746Z" fill="#36C5F0"/>
<path d="M20.8731 31.6746C20.8731 31.0952 21.3413 30.627 21.9207 30.627C22.5 30.627 22.9683 31.0952 22.9683 31.6746C22.9683 32.254 22.5 32.7222 21.9207 32.7222H20.8731V31.6746ZM20.3493 31.6746C20.3493 32.254 19.881 32.7222 19.3016 32.7222C18.7223 32.7222 18.254 32.254 18.254 31.6746V29.0477C18.254 28.4682 18.7223 28 19.3016 28C19.8809 28 20.3492 28.4682 20.3492 29.0476L20.3493 31.6746Z" fill="#2EB67D"/>
<path d="M19.3016 35.8731C19.881 35.8731 20.3493 36.3413 20.3493 36.9206C20.3493 37.5 19.881 37.9683 19.3016 37.9683C18.7223 37.9683 18.254 37.5 18.254 36.9206V35.8731H19.3016ZM19.3016 35.3492C18.7223 35.3492 18.254 34.881 18.254 34.3016C18.254 33.7222 18.7223 33.254 19.3016 33.254H21.9286C22.508 33.254 22.9763 33.7222 22.9763 34.3016C22.9763 34.881 22.508 35.3492 21.9286 35.3492H19.3016Z" fill="#ECB22E"/>
</g>
<path d="M34.8125 31.7102C34.7822 31.4413 34.6572 31.233 34.4375 31.0852C34.2178 30.9356 33.9413 30.8608 33.608 30.8608C33.3693 30.8608 33.1629 30.8987 32.9886 30.9744C32.8144 31.0483 32.679 31.1506 32.5824 31.2812C32.4877 31.41 32.4403 31.5568 32.4403 31.7216C32.4403 31.8598 32.4725 31.9792 32.5369 32.0795C32.6032 32.1799 32.6894 32.2642 32.7955 32.3324C32.9034 32.3987 33.0189 32.4545 33.142 32.5C33.2652 32.5436 33.3835 32.5795 33.4972 32.608L34.0653 32.7557C34.2509 32.8011 34.4413 32.8627 34.6364 32.9403C34.8314 33.018 35.0123 33.1203 35.179 33.2472C35.3456 33.3741 35.4801 33.5312 35.5824 33.7188C35.6866 33.9062 35.7386 34.1307 35.7386 34.392C35.7386 34.7216 35.6534 35.0142 35.483 35.2699C35.3144 35.5256 35.0691 35.7273 34.7472 35.875C34.4271 36.0227 34.0398 36.0966 33.5852 36.0966C33.1496 36.0966 32.7727 36.0275 32.4545 35.8892C32.1364 35.7509 31.8873 35.5549 31.7074 35.3011C31.5275 35.0455 31.428 34.7424 31.4091 34.392H32.2898C32.3068 34.6023 32.375 34.7775 32.4943 34.9176C32.6155 35.0559 32.7699 35.1591 32.9574 35.2273C33.1468 35.2936 33.3542 35.3267 33.5795 35.3267C33.8277 35.3267 34.0483 35.2879 34.2415 35.2102C34.4366 35.1307 34.59 35.0208 34.7017 34.8807C34.8134 34.7386 34.8693 34.5729 34.8693 34.3835C34.8693 34.2112 34.8201 34.0701 34.7216 33.9602C34.625 33.8504 34.4934 33.7595 34.3267 33.6875C34.1619 33.6155 33.9754 33.5521 33.767 33.4972L33.0795 33.3097C32.6136 33.1828 32.2443 32.9962 31.9716 32.75C31.7008 32.5038 31.5653 32.178 31.5653 31.7727C31.5653 31.4375 31.6563 31.1449 31.8381 30.8949C32.0199 30.6449 32.2661 30.4508 32.5767 30.3125C32.8873 30.1723 33.2377 30.1023 33.6278 30.1023C34.0218 30.1023 34.3693 30.1714 34.6705 30.3097C34.9735 30.4479 35.2121 30.6383 35.3864 30.8807C35.5606 31.1212 35.6515 31.3977 35.6591 31.7102H34.8125ZM37.5689 30.1818V36H36.7195V30.1818H37.5689ZM39.9815 36.0966C39.705 36.0966 39.455 36.0455 39.2315 35.9432C39.008 35.839 38.831 35.6884 38.7003 35.4915C38.5715 35.2945 38.5071 35.053 38.5071 34.767C38.5071 34.5208 38.5545 34.3182 38.6491 34.1591C38.7438 34 38.8717 33.8741 39.0327 33.7812C39.1937 33.6884 39.3736 33.6184 39.5724 33.571C39.7713 33.5237 39.974 33.4877 40.1804 33.4631C40.4418 33.4328 40.6539 33.4081 40.8168 33.3892C40.9796 33.3684 41.098 33.3352 41.1719 33.2898C41.2457 33.2443 41.2827 33.1705 41.2827 33.0682V33.0483C41.2827 32.8002 41.2126 32.608 41.0724 32.4716C40.9342 32.3352 40.7277 32.267 40.4531 32.267C40.1671 32.267 39.9418 32.3305 39.777 32.4574C39.6141 32.5824 39.5014 32.7216 39.4389 32.875L38.6406 32.6932C38.7353 32.428 38.8736 32.214 39.0554 32.0511C39.2391 31.8864 39.4503 31.767 39.6889 31.6932C39.9276 31.6174 40.1785 31.5795 40.4418 31.5795C40.616 31.5795 40.8007 31.6004 40.9957 31.642C41.1927 31.6818 41.3764 31.7557 41.5469 31.8636C41.7192 31.9716 41.8603 32.1259 41.9702 32.3267C42.08 32.5256 42.1349 32.7841 42.1349 33.1023V36H41.3054V35.4034H41.2713C41.2164 35.5133 41.134 35.6212 41.0241 35.7273C40.9143 35.8333 40.7732 35.9214 40.6009 35.9915C40.4285 36.0616 40.2221 36.0966 39.9815 36.0966ZM40.1662 35.4148C40.401 35.4148 40.6018 35.3684 40.7685 35.2756C40.937 35.1828 41.0649 35.0616 41.152 34.9119C41.241 34.7604 41.2855 34.5985 41.2855 34.4261V33.8636C41.2552 33.8939 41.1965 33.9223 41.1094 33.9489C41.0241 33.9735 40.9266 33.9953 40.8168 34.0142C40.7069 34.0312 40.5999 34.0473 40.4957 34.0625C40.3916 34.0758 40.3045 34.0871 40.2344 34.0966C40.0696 34.1174 39.919 34.1525 39.7827 34.2017C39.6482 34.2509 39.5402 34.322 39.4588 34.4148C39.3793 34.5057 39.3395 34.6269 39.3395 34.7784C39.3395 34.9886 39.4171 35.1477 39.5724 35.2557C39.7277 35.3617 39.9257 35.4148 40.1662 35.4148ZM45.1044 36.0881C44.6821 36.0881 44.3184 35.9924 44.0135 35.8011C43.7105 35.608 43.4775 35.3419 43.3146 35.0028C43.1518 34.6638 43.0703 34.2756 43.0703 33.8381C43.0703 33.3949 43.1536 33.0038 43.3203 32.6648C43.487 32.3239 43.7218 32.0578 44.0249 31.8665C44.3279 31.6752 44.6849 31.5795 45.0959 31.5795C45.4273 31.5795 45.7228 31.6411 45.9822 31.7642C46.2417 31.8854 46.451 32.0559 46.6101 32.2756C46.7711 32.4953 46.8667 32.7519 46.897 33.0455H46.0703C46.0249 32.8409 45.9207 32.6648 45.7578 32.517C45.5968 32.3693 45.3809 32.2955 45.1101 32.2955C44.8733 32.2955 44.666 32.358 44.4879 32.483C44.3118 32.6061 44.1745 32.7822 44.076 33.0114C43.9775 33.2386 43.9283 33.5076 43.9283 33.8182C43.9283 34.1364 43.9766 34.411 44.0732 34.642C44.1697 34.8731 44.3061 35.0521 44.4822 35.179C44.6603 35.3059 44.8696 35.3693 45.1101 35.3693C45.2711 35.3693 45.4169 35.34 45.5476 35.2812C45.6802 35.2206 45.791 35.1345 45.88 35.0227C45.9709 34.911 46.0343 34.7765 46.0703 34.6193H46.897C46.8667 34.9015 46.7749 35.1534 46.6214 35.375C46.468 35.5966 46.2625 35.7708 46.005 35.8977C45.7493 36.0246 45.4491 36.0881 45.1044 36.0881ZM48.5866 34.5199L48.581 33.483H48.7287L50.4673 31.6364H51.4844L49.5014 33.7386H49.3679L48.5866 34.5199ZM47.8054 36V30.1818H48.6548V36H47.8054ZM50.5611 36L48.9986 33.9261L49.5838 33.3324L51.6037 36H50.5611Z" fill="#636363"/>
<rect x="10" y="111" width="61" height="25" rx="12.5" fill="url(#paint3_linear_1_158)"/>
<rect x="10.5" y="111.5" width="60" height="24" rx="12" stroke="#DCDCDC" stroke-opacity="0.5"/>
<circle cx="27" cy="123" r="8" fill="white"/>
<circle cx="27" cy="123" r="7.5" stroke="#DCDCDC" stroke-opacity="0.5"/>
<g clip-path="url(#clip1_1_158)">
<path d="M32 123.15C32 122.439 31.6555 121.878 30.9972 121.878C30.3361 121.878 29.9361 122.439 29.9361 123.144C29.9361 123.981 30.4083 124.403 31.0861 124.403C31.4167 124.403 31.6667 124.328 31.8555 124.222V123.667C31.6667 123.761 31.45 123.819 31.175 123.819C30.9055 123.819 30.6667 123.725 30.6361 123.397H31.9945C31.9945 123.361 32 123.217 32 123.15ZM30.6278 122.886C30.6278 122.572 30.8195 122.442 30.9945 122.442C31.1639 122.442 31.3445 122.572 31.3445 122.886H30.6278ZM28.8639 121.878C28.5917 121.878 28.4167 122.006 28.3195 122.094L28.2833 121.922H27.6722V125.161L28.3667 125.014L28.3695 124.228C28.4695 124.3 28.6167 124.403 28.8611 124.403C29.3583 124.403 29.8111 124.003 29.8111 123.122C29.8083 122.317 29.35 121.878 28.8639 121.878M28.6972 123.792C28.5333 123.792 28.4361 123.733 28.3694 123.661L28.3666 122.631C28.4389 122.55 28.5389 122.494 28.6972 122.494C28.95 122.494 29.125 122.778 29.125 123.142C29.125 123.514 28.9528 123.792 28.6972 123.792ZM26.7167 121.714L27.4139 121.564V121L26.7167 121.147V121.714ZM26.7167 121.925H27.4139V124.356H26.7167V121.925ZM25.9695 122.131L25.925 121.925H25.325V124.356H26.0195V122.708C26.1833 122.494 26.4611 122.533 26.5472 122.564V121.925C26.4583 121.892 26.1333 121.831 25.9695 122.131ZM24.5805 121.322L23.9028 121.467L23.9 123.692C23.9 124.103 24.2083 124.406 24.6195 124.406C24.8472 124.406 25.0139 124.364 25.1055 124.314V123.75C25.0167 123.786 24.5778 123.914 24.5778 123.503V122.517H25.1055V121.925H24.5778L24.5805 121.322ZM22.7028 122.631C22.7028 122.522 22.7917 122.481 22.9389 122.481C23.15 122.481 23.4167 122.544 23.6278 122.658V122.006C23.3972 121.914 23.1695 121.878 22.9389 121.878C22.375 121.878 22 122.172 22 122.664C22 123.431 23.0555 123.308 23.0555 123.639C23.0555 123.767 22.9445 123.808 22.7889 123.808C22.5583 123.808 22.2639 123.714 22.0305 123.586V124.247C22.2889 124.358 22.55 124.406 22.7889 124.406C23.3667 124.406 23.7639 124.119 23.7639 123.622C23.7611 122.794 22.7028 122.942 22.7028 122.631Z" fill="#635BFF"/>
</g>
<path d="M43.8125 121.71C43.7822 121.441 43.6572 121.233 43.4375 121.085C43.2178 120.936 42.9413 120.861 42.608 120.861C42.3693 120.861 42.1629 120.899 41.9886 120.974C41.8144 121.048 41.679 121.151 41.5824 121.281C41.4877 121.41 41.4403 121.557 41.4403 121.722C41.4403 121.86 41.4725 121.979 41.5369 122.08C41.6032 122.18 41.6894 122.264 41.7955 122.332C41.9034 122.399 42.0189 122.455 42.142 122.5C42.2652 122.544 42.3835 122.58 42.4972 122.608L43.0653 122.756C43.2509 122.801 43.4413 122.863 43.6364 122.94C43.8314 123.018 44.0123 123.12 44.179 123.247C44.3456 123.374 44.4801 123.531 44.5824 123.719C44.6866 123.906 44.7386 124.131 44.7386 124.392C44.7386 124.722 44.6534 125.014 44.483 125.27C44.3144 125.526 44.0691 125.727 43.7472 125.875C43.4271 126.023 43.0398 126.097 42.5852 126.097C42.1496 126.097 41.7727 126.027 41.4545 125.889C41.1364 125.751 40.8873 125.555 40.7074 125.301C40.5275 125.045 40.428 124.742 40.4091 124.392H41.2898C41.3068 124.602 41.375 124.777 41.4943 124.918C41.6155 125.056 41.7699 125.159 41.9574 125.227C42.1468 125.294 42.3542 125.327 42.5795 125.327C42.8277 125.327 43.0483 125.288 43.2415 125.21C43.4366 125.131 43.59 125.021 43.7017 124.881C43.8134 124.739 43.8693 124.573 43.8693 124.384C43.8693 124.211 43.8201 124.07 43.7216 123.96C43.625 123.85 43.4934 123.759 43.3267 123.688C43.1619 123.616 42.9754 123.552 42.767 123.497L42.0795 123.31C41.6136 123.183 41.2443 122.996 40.9716 122.75C40.7008 122.504 40.5653 122.178 40.5653 121.773C40.5653 121.437 40.6563 121.145 40.8381 120.895C41.0199 120.645 41.2661 120.451 41.5767 120.312C41.8873 120.172 42.2377 120.102 42.6278 120.102C43.0218 120.102 43.3693 120.171 43.6705 120.31C43.9735 120.448 44.2121 120.638 44.3864 120.881C44.5606 121.121 44.6515 121.398 44.6591 121.71H43.8125ZM47.7564 121.636V122.318H45.3729V121.636H47.7564ZM46.0121 120.591H46.8615V124.719C46.8615 124.884 46.8861 125.008 46.9354 125.091C46.9846 125.172 47.0481 125.228 47.1257 125.259C47.2053 125.287 47.2914 125.301 47.3842 125.301C47.4524 125.301 47.5121 125.296 47.5632 125.287C47.6143 125.277 47.6541 125.27 47.6825 125.264L47.8359 125.966C47.7867 125.985 47.7166 126.004 47.6257 126.023C47.5348 126.044 47.4212 126.055 47.2848 126.057C47.0613 126.061 46.853 126.021 46.6598 125.938C46.4666 125.854 46.3104 125.725 46.1911 125.551C46.0717 125.377 46.0121 125.158 46.0121 124.895V120.591ZM48.696 126V121.636H49.517V122.33H49.5625C49.642 122.095 49.7822 121.91 49.983 121.776C50.1856 121.639 50.4148 121.571 50.6705 121.571C50.7235 121.571 50.786 121.573 50.858 121.577C50.9318 121.58 50.9896 121.585 51.0312 121.591V122.403C50.9972 122.394 50.9366 122.384 50.8494 122.372C50.7623 122.359 50.6752 122.352 50.5881 122.352C50.3873 122.352 50.2083 122.395 50.0511 122.48C49.8958 122.563 49.7727 122.68 49.6818 122.83C49.5909 122.977 49.5455 123.146 49.5455 123.335V126H48.696ZM51.7663 126V121.636H52.6158V126H51.7663ZM52.1953 120.963C52.0476 120.963 51.9207 120.914 51.8146 120.815C51.7105 120.715 51.6584 120.596 51.6584 120.457C51.6584 120.317 51.7105 120.198 51.8146 120.099C51.9207 119.999 52.0476 119.949 52.1953 119.949C52.343 119.949 52.469 119.999 52.5732 120.099C52.6792 120.198 52.7322 120.317 52.7322 120.457C52.7322 120.596 52.6792 120.715 52.5732 120.815C52.469 120.914 52.343 120.963 52.1953 120.963ZM53.7585 127.636V121.636H54.5881V122.344H54.6591C54.7083 122.253 54.7794 122.148 54.8722 122.028C54.965 121.909 55.0938 121.805 55.2585 121.716C55.4233 121.625 55.6411 121.58 55.9119 121.58C56.2642 121.58 56.5786 121.669 56.8551 121.847C57.1316 122.025 57.3485 122.281 57.5057 122.616C57.6648 122.952 57.7443 123.355 57.7443 123.827C57.7443 124.298 57.6657 124.703 57.5085 125.04C57.3513 125.375 57.1354 125.634 56.8608 125.815C56.5862 125.995 56.2727 126.085 55.9205 126.085C55.6553 126.085 55.4384 126.041 55.2699 125.952C55.1032 125.863 54.9725 125.759 54.8778 125.639C54.7831 125.52 54.7102 125.414 54.6591 125.321H54.608V127.636H53.7585ZM54.5909 123.818C54.5909 124.125 54.6354 124.394 54.7244 124.625C54.8134 124.856 54.9422 125.037 55.1108 125.168C55.2794 125.296 55.4858 125.361 55.7301 125.361C55.9839 125.361 56.196 125.294 56.3665 125.159C56.5369 125.023 56.6657 124.838 56.7528 124.605C56.8419 124.372 56.8864 124.11 56.8864 123.818C56.8864 123.53 56.8428 123.272 56.7557 123.043C56.6705 122.813 56.5417 122.633 56.3693 122.5C56.1989 122.367 55.9858 122.301 55.7301 122.301C55.4839 122.301 55.2756 122.365 55.1051 122.491C54.9366 122.618 54.8087 122.795 54.7216 123.023C54.6345 123.25 54.5909 123.515 54.5909 123.818ZM60.5767 126.088C60.1468 126.088 59.7765 125.996 59.4659 125.812C59.1572 125.627 58.9186 125.366 58.75 125.031C58.5833 124.694 58.5 124.299 58.5 123.847C58.5 123.4 58.5833 123.006 58.75 122.665C58.9186 122.324 59.1534 122.058 59.4545 121.866C59.7576 121.675 60.1117 121.58 60.517 121.58C60.7633 121.58 61.0019 121.62 61.233 121.702C61.464 121.783 61.6714 121.911 61.8551 122.085C62.0388 122.259 62.1837 122.486 62.2898 122.764C62.3958 123.041 62.4489 123.377 62.4489 123.773V124.074H58.9801V123.438H61.6165C61.6165 123.214 61.571 123.016 61.4801 122.844C61.3892 122.67 61.2614 122.532 61.0966 122.432C60.9337 122.331 60.7424 122.281 60.5227 122.281C60.2841 122.281 60.0758 122.34 59.8977 122.457C59.7216 122.573 59.5852 122.724 59.4886 122.912C59.3939 123.098 59.3466 123.299 59.3466 123.517V124.014C59.3466 124.306 59.3977 124.554 59.5 124.759C59.6042 124.963 59.7491 125.119 59.9347 125.227C60.1203 125.333 60.3371 125.386 60.5852 125.386C60.7462 125.386 60.893 125.364 61.0256 125.318C61.1581 125.271 61.2727 125.201 61.3693 125.108C61.4659 125.015 61.5398 124.901 61.5909 124.764L62.3949 124.909C62.3305 125.146 62.215 125.353 62.0483 125.531C61.8835 125.707 61.6761 125.845 61.4261 125.943C61.178 126.04 60.8949 126.088 60.5767 126.088Z" fill="#636363"/>
<rect x="288" y="111" width="61" height="25" rx="12.5" fill="url(#paint4_linear_1_158)"/>
<rect x="288.5" y="111.5" width="60" height="24" rx="12" stroke="#DCDCDC" stroke-opacity="0.5"/>
<circle cx="306" cy="123" r="8" fill="white"/>
<circle cx="306" cy="123" r="7.5" stroke="#DCDCDC" stroke-opacity="0.5"/>
<g clip-path="url(#clip2_1_158)">
<path d="M302.08 124.38C302.08 124.762 302.164 125.055 302.273 125.233C302.417 125.465 302.631 125.563 302.85 125.563C303.131 125.563 303.389 125.493 303.886 124.807C304.283 124.256 304.752 123.483 305.068 122.999L305.602 122.178C305.973 121.608 306.402 120.975 306.895 120.545C307.297 120.195 307.73 120 308.167 120C308.9 120 309.597 120.425 310.132 121.221C310.716 122.093 311 123.192 311 124.325C311 124.999 310.867 125.494 310.641 125.886C310.423 126.264 309.997 126.642 309.281 126.642V125.563C309.894 125.563 310.047 125 310.047 124.355C310.047 123.437 309.833 122.417 309.361 121.688C309.026 121.172 308.592 120.856 308.115 120.856C307.598 120.856 307.183 121.245 306.716 121.94C306.467 122.309 306.212 122.758 305.926 123.266L305.611 123.824C304.978 124.946 304.818 125.202 304.502 125.624C303.947 126.362 303.473 126.642 302.85 126.642C302.11 126.642 301.642 126.322 301.353 125.839C301.116 125.446 301 124.93 301 124.342L302.08 124.38Z" fill="#0081FB"/>
<path d="M301.852 121.297C302.347 120.534 303.061 120 303.881 120C304.356 120 304.828 120.141 305.32 120.543C305.859 120.983 306.434 121.707 307.151 122.901L307.408 123.329C308.028 124.363 308.381 124.895 308.588 125.145C308.853 125.467 309.039 125.563 309.281 125.563C309.894 125.563 310.047 125 310.047 124.355L311 124.325C311 124.999 310.867 125.494 310.641 125.886C310.423 126.264 309.997 126.642 309.281 126.642C308.836 126.642 308.442 126.545 308.005 126.134C307.67 125.818 307.278 125.257 306.977 124.753L306.08 123.255C305.63 122.503 305.217 121.943 304.978 121.689C304.721 121.416 304.391 121.086 303.864 121.086C303.437 121.086 303.075 121.385 302.771 121.843L301.852 121.297Z" fill="url(#paint5_linear_1_158)"/>
<path d="M303.864 121.086C303.437 121.086 303.075 121.385 302.771 121.843C302.343 122.491 302.08 123.455 302.08 124.38C302.08 124.762 302.164 125.055 302.273 125.233L301.353 125.839C301.116 125.446 301 124.93 301 124.342C301 123.272 301.294 122.158 301.852 121.297C302.347 120.534 303.061 120 303.881 120L303.864 121.086Z" fill="url(#paint6_linear_1_158)"/>
</g>
<path d="M319.639 120.182H320.705L322.557 124.705H322.625L324.477 120.182H325.543V126H324.707V121.79H324.653L322.938 125.991H322.244L320.528 121.787H320.474V126H319.639V120.182ZM328.631 126.088C328.201 126.088 327.831 125.996 327.521 125.812C327.212 125.627 326.973 125.366 326.805 125.031C326.638 124.694 326.555 124.299 326.555 123.847C326.555 123.4 326.638 123.006 326.805 122.665C326.973 122.324 327.208 122.058 327.509 121.866C327.812 121.675 328.166 121.58 328.572 121.58C328.818 121.58 329.057 121.62 329.288 121.702C329.519 121.783 329.726 121.911 329.91 122.085C330.094 122.259 330.238 122.486 330.344 122.764C330.451 123.041 330.504 123.377 330.504 123.773V124.074H327.035V123.438H329.671C329.671 123.214 329.626 123.016 329.535 122.844C329.444 122.67 329.316 122.532 329.151 122.432C328.988 122.331 328.797 122.281 328.577 122.281C328.339 122.281 328.13 122.34 327.952 122.457C327.776 122.573 327.64 122.724 327.543 122.912C327.449 123.098 327.401 123.299 327.401 123.517V124.014C327.401 124.306 327.452 124.554 327.555 124.759C327.659 124.963 327.804 125.119 327.989 125.227C328.175 125.333 328.392 125.386 328.64 125.386C328.801 125.386 328.948 125.364 329.08 125.318C329.213 125.271 329.327 125.201 329.424 125.108C329.521 125.015 329.594 124.901 329.646 124.764L330.45 124.909C330.385 125.146 330.27 125.353 330.103 125.531C329.938 125.707 329.731 125.845 329.481 125.943C329.233 126.04 328.95 126.088 328.631 126.088ZM333.483 121.636V122.318H331.099V121.636H333.483ZM331.739 120.591H332.588V124.719C332.588 124.884 332.613 125.008 332.662 125.091C332.711 125.172 332.775 125.228 332.852 125.259C332.932 125.287 333.018 125.301 333.111 125.301C333.179 125.301 333.239 125.296 333.29 125.287C333.341 125.277 333.381 125.27 333.409 125.264L333.562 125.966C333.513 125.985 333.443 126.004 333.352 126.023C333.261 126.044 333.148 126.055 333.011 126.057C332.788 126.061 332.58 126.021 332.386 125.938C332.193 125.854 332.037 125.725 331.918 125.551C331.798 125.377 331.739 125.158 331.739 124.895V120.591ZM335.692 126.097C335.416 126.097 335.166 126.045 334.942 125.943C334.719 125.839 334.542 125.688 334.411 125.491C334.282 125.295 334.218 125.053 334.218 124.767C334.218 124.521 334.265 124.318 334.36 124.159C334.455 124 334.583 123.874 334.744 123.781C334.905 123.688 335.085 123.618 335.283 123.571C335.482 123.524 335.685 123.488 335.891 123.463C336.153 123.433 336.365 123.408 336.528 123.389C336.691 123.368 336.809 123.335 336.883 123.29C336.957 123.244 336.994 123.17 336.994 123.068V123.048C336.994 122.8 336.924 122.608 336.783 122.472C336.645 122.335 336.439 122.267 336.164 122.267C335.878 122.267 335.653 122.33 335.488 122.457C335.325 122.582 335.212 122.722 335.15 122.875L334.352 122.693C334.446 122.428 334.585 122.214 334.766 122.051C334.95 121.886 335.161 121.767 335.4 121.693C335.638 121.617 335.889 121.58 336.153 121.58C336.327 121.58 336.512 121.6 336.707 121.642C336.904 121.682 337.087 121.756 337.258 121.864C337.43 121.972 337.571 122.126 337.681 122.327C337.791 122.526 337.846 122.784 337.846 123.102V126H337.016V125.403H336.982C336.927 125.513 336.845 125.621 336.735 125.727C336.625 125.833 336.484 125.921 336.312 125.991C336.139 126.062 335.933 126.097 335.692 126.097ZM335.877 125.415C336.112 125.415 336.313 125.368 336.479 125.276C336.648 125.183 336.776 125.062 336.863 124.912C336.952 124.76 336.996 124.598 336.996 124.426V123.864C336.966 123.894 336.907 123.922 336.82 123.949C336.735 123.973 336.638 123.995 336.528 124.014C336.418 124.031 336.311 124.047 336.207 124.062C336.103 124.076 336.015 124.087 335.945 124.097C335.781 124.117 335.63 124.152 335.494 124.202C335.359 124.251 335.251 124.322 335.17 124.415C335.09 124.506 335.05 124.627 335.05 124.778C335.05 124.989 335.128 125.148 335.283 125.256C335.439 125.362 335.637 125.415 335.877 125.415Z" fill="#636363"/>
<rect x="142" width="68" height="25" rx="12.5" fill="url(#paint7_linear_1_158)"/>
<rect x="142.5" y="0.5" width="67" height="24" rx="12" stroke="#DCDCDC" stroke-opacity="0.5"/>
<circle cx="159" cy="12" r="8" fill="white"/>
<circle cx="159" cy="12" r="7.5" stroke="#DCDCDC" stroke-opacity="0.5"/>
<g clip-path="url(#clip3_1_158)">
<path d="M156.5 8L154 9.59262L156.5 11.1853L159 9.59262L156.5 8ZM161.5 8L159 9.59277L161.5 11.1855L164 9.59277L161.5 8ZM154 12.7782L156.5 14.3708L159 12.7782L156.5 11.1855L154 12.7782ZM161.5 11.1855L159 12.7783L161.5 14.3711L164 12.7783L161.5 11.1855ZM156.5 14.9051L159 16.4978L161.5 14.9051L159 13.3125L156.5 14.9051Z" fill="#0061FF"/>
</g>
<path d="M172.523 15H170.639V9.18182H172.582C173.152 9.18182 173.642 9.2983 174.051 9.53125C174.46 9.76231 174.774 10.0947 174.991 10.5284C175.211 10.9602 175.321 11.4782 175.321 12.0824C175.321 12.6884 175.21 13.2093 174.989 13.6449C174.769 14.0805 174.451 14.4157 174.034 14.6506C173.617 14.8835 173.114 15 172.523 15ZM171.517 14.233H172.474C172.918 14.233 173.286 14.1496 173.58 13.983C173.873 13.8144 174.093 13.571 174.239 13.2528C174.384 12.9328 174.457 12.5426 174.457 12.0824C174.457 11.6259 174.384 11.2386 174.239 10.9205C174.095 10.6023 173.88 10.3608 173.594 10.196C173.308 10.0312 172.953 9.94886 172.528 9.94886H171.517V14.233ZM176.344 15V10.6364H177.165V11.3295H177.211C177.29 11.0947 177.431 10.91 177.631 10.7756C177.834 10.6392 178.063 10.571 178.319 10.571C178.372 10.571 178.434 10.5729 178.506 10.5767C178.58 10.5805 178.638 10.5852 178.68 10.5909V11.4034C178.646 11.3939 178.585 11.3835 178.498 11.3722C178.411 11.3589 178.324 11.3523 178.237 11.3523C178.036 11.3523 177.857 11.3949 177.7 11.4801C177.544 11.5634 177.421 11.6799 177.33 11.8295C177.239 11.9773 177.194 12.1458 177.194 12.3352V15H176.344ZM181.097 15.0881C180.688 15.0881 180.33 14.9943 180.026 14.8068C179.721 14.6193 179.484 14.357 179.315 14.0199C179.147 13.6828 179.062 13.2888 179.062 12.8381C179.062 12.3854 179.147 11.9896 179.315 11.6506C179.484 11.3116 179.721 11.0483 180.026 10.8608C180.33 10.6733 180.688 10.5795 181.097 10.5795C181.506 10.5795 181.863 10.6733 182.168 10.8608C182.473 11.0483 182.709 11.3116 182.878 11.6506C183.046 11.9896 183.131 12.3854 183.131 12.8381C183.131 13.2888 183.046 13.6828 182.878 14.0199C182.709 14.357 182.473 14.6193 182.168 14.8068C181.863 14.9943 181.506 15.0881 181.097 15.0881ZM181.099 14.375C181.365 14.375 181.584 14.3049 181.759 14.1648C181.933 14.0246 182.062 13.8381 182.145 13.6051C182.23 13.3722 182.273 13.1155 182.273 12.8352C182.273 12.5568 182.23 12.3011 182.145 12.0682C182.062 11.8333 181.933 11.6449 181.759 11.5028C181.584 11.3608 181.365 11.2898 181.099 11.2898C180.832 11.2898 180.611 11.3608 180.435 11.5028C180.26 11.6449 180.131 11.8333 180.045 12.0682C179.962 12.3011 179.92 12.5568 179.92 12.8352C179.92 13.1155 179.962 13.3722 180.045 13.6051C180.131 13.8381 180.26 14.0246 180.435 14.1648C180.611 14.3049 180.832 14.375 181.099 14.375ZM184.079 16.6364V10.6364H184.908V11.3438H184.979C185.029 11.2528 185.1 11.1477 185.192 11.0284C185.285 10.9091 185.414 10.8049 185.579 10.7159C185.744 10.625 185.961 10.5795 186.232 10.5795C186.585 10.5795 186.899 10.6686 187.175 10.8466C187.452 11.0246 187.669 11.2812 187.826 11.6165C187.985 11.9517 188.065 12.3551 188.065 12.8267C188.065 13.2983 187.986 13.7027 187.829 14.0398C187.672 14.375 187.456 14.6335 187.181 14.8153C186.906 14.9953 186.593 15.0852 186.241 15.0852C185.976 15.0852 185.759 15.0407 185.59 14.9517C185.424 14.8627 185.293 14.7585 185.198 14.6392C185.103 14.5199 185.031 14.4138 184.979 14.321H184.928V16.6364H184.079ZM184.911 12.8182C184.911 13.125 184.956 13.3939 185.045 13.625C185.134 13.8561 185.263 14.0369 185.431 14.1676C185.6 14.2964 185.806 14.3608 186.05 14.3608C186.304 14.3608 186.516 14.2936 186.687 14.1591C186.857 14.0227 186.986 13.8381 187.073 13.6051C187.162 13.3722 187.207 13.1098 187.207 12.8182C187.207 12.5303 187.163 12.2718 187.076 12.0426C186.991 11.8134 186.862 11.6326 186.69 11.5C186.519 11.3674 186.306 11.3011 186.05 11.3011C185.804 11.3011 185.596 11.3646 185.425 11.4915C185.257 11.6184 185.129 11.7955 185.042 12.0227C184.955 12.25 184.911 12.5152 184.911 12.8182ZM189.085 15V9.18182H189.934V11.3438H189.985C190.034 11.2528 190.105 11.1477 190.198 11.0284C190.291 10.9091 190.42 10.8049 190.585 10.7159C190.749 10.625 190.967 10.5795 191.238 10.5795C191.59 10.5795 191.905 10.6686 192.181 10.8466C192.458 11.0246 192.674 11.2812 192.832 11.6165C192.991 11.9517 193.07 12.3551 193.07 12.8267C193.07 13.2983 192.992 13.7027 192.835 14.0398C192.677 14.375 192.461 14.6335 192.187 14.8153C191.912 14.9953 191.599 15.0852 191.246 15.0852C190.981 15.0852 190.764 15.0407 190.596 14.9517C190.429 14.8627 190.299 14.7585 190.204 14.6392C190.109 14.5199 190.036 14.4138 189.985 14.321H189.914V15H189.085ZM189.917 12.8182C189.917 13.125 189.961 13.3939 190.05 13.625C190.139 13.8561 190.268 14.0369 190.437 14.1676C190.605 14.2964 190.812 14.3608 191.056 14.3608C191.31 14.3608 191.522 14.2936 191.692 14.1591C191.863 14.0227 191.992 13.8381 192.079 13.6051C192.168 13.3722 192.212 13.1098 192.212 12.8182C192.212 12.5303 192.169 12.2718 192.082 12.0426C191.996 11.8134 191.868 11.6326 191.695 11.5C191.525 11.3674 191.312 11.3011 191.056 11.3011C190.81 11.3011 190.602 11.3646 190.431 11.4915C190.263 11.6184 190.135 11.7955 190.048 12.0227C189.96 12.25 189.917 12.5152 189.917 12.8182ZM195.862 15.0881C195.453 15.0881 195.096 14.9943 194.791 14.8068C194.486 14.6193 194.25 14.357 194.081 14.0199C193.912 13.6828 193.828 13.2888 193.828 12.8381C193.828 12.3854 193.912 11.9896 194.081 11.6506C194.25 11.3116 194.486 11.0483 194.791 10.8608C195.096 10.6733 195.453 10.5795 195.862 10.5795C196.271 10.5795 196.628 10.6733 196.933 10.8608C197.238 11.0483 197.475 11.3116 197.643 11.6506C197.812 11.9896 197.896 12.3854 197.896 12.8381C197.896 13.2888 197.812 13.6828 197.643 14.0199C197.475 14.357 197.238 14.6193 196.933 14.8068C196.628 14.9943 196.271 15.0881 195.862 15.0881ZM195.865 14.375C196.13 14.375 196.35 14.3049 196.524 14.1648C196.698 14.0246 196.827 13.8381 196.911 13.6051C196.996 13.3722 197.038 13.1155 197.038 12.8352C197.038 12.5568 196.996 12.3011 196.911 12.0682C196.827 11.8333 196.698 11.6449 196.524 11.5028C196.35 11.3608 196.13 11.2898 195.865 11.2898C195.598 11.2898 195.376 11.3608 195.2 11.5028C195.026 11.6449 194.896 11.8333 194.811 12.0682C194.728 12.3011 194.686 12.5568 194.686 12.8352C194.686 13.1155 194.728 13.3722 194.811 13.6051C194.896 13.8381 195.026 14.0246 195.2 14.1648C195.376 14.3049 195.598 14.375 195.865 14.375ZM199.343 10.6364L200.306 12.3352L201.278 10.6364H202.207L200.846 12.8182L202.218 15H201.289L200.306 13.3693L199.326 15H198.394L199.752 12.8182L198.411 10.6364H199.343Z" fill="#636363"/>
<rect x="294" y="21" width="61" height="25" rx="12.5" fill="url(#paint8_linear_1_158)"/>
<rect x="294.5" y="21.5" width="60" height="24" rx="12" stroke="#DCDCDC" stroke-opacity="0.5"/>
<circle cx="312" cy="33" r="8" fill="white"/>
<circle cx="312" cy="33" r="7.5" stroke="#DCDCDC" stroke-opacity="0.5"/>
<path d="M309.842 32.1906C309.842 32.3125 309.855 32.4113 309.878 32.4836C309.905 32.5559 309.938 32.635 309.984 32.7205C310 32.7467 310.007 32.773 310.007 32.7962C310.007 32.8288 309.987 32.8618 309.944 32.8947L309.737 33.033C309.707 33.0525 309.678 33.0626 309.651 33.0626C309.618 33.0626 309.586 33.0461 309.553 33.0165C309.508 32.9687 309.469 32.917 309.434 32.8618C309.397 32.7985 309.363 32.7337 309.332 32.6677C309.076 32.9704 308.753 33.1218 308.365 33.1218C308.089 33.1218 307.869 33.0427 307.707 32.8849C307.546 32.7269 307.464 32.5163 307.464 32.2532C307.464 31.9737 307.562 31.7466 307.763 31.5758C307.964 31.4045 308.23 31.3191 308.569 31.3191C308.681 31.3191 308.796 31.3288 308.918 31.3453C309.04 31.3618 309.165 31.3881 309.296 31.4177V31.1775C309.296 30.9275 309.243 30.7533 309.142 30.6514C309.036 30.5495 308.858 30.5 308.605 30.5C308.49 30.5 308.372 30.5131 308.25 30.5427C308.129 30.5715 308.01 30.609 307.895 30.6547C307.842 30.6776 307.803 30.6907 307.78 30.6974C307.757 30.7038 307.74 30.7072 307.727 30.7072C307.681 30.7072 307.658 30.6742 307.658 30.6053V30.4441C307.658 30.3913 307.664 30.352 307.681 30.3288C307.697 30.3059 307.727 30.2831 307.773 30.2598C307.888 30.2006 308.026 30.1513 308.187 30.1118C308.349 30.0691 308.52 30.0493 308.701 30.0493C309.092 30.0493 309.378 30.1381 309.563 30.3157C309.743 30.4933 309.835 30.7631 309.835 31.125V32.1906H309.842ZM308.507 32.6909C308.615 32.6909 308.727 32.671 308.845 32.6316C308.964 32.592 309.069 32.5197 309.158 32.4211C309.21 32.3586 309.25 32.2895 309.27 32.2106C309.289 32.1315 309.303 32.0363 309.303 31.9242V31.7863C309.203 31.7618 309.102 31.743 309 31.7302C308.898 31.7173 308.794 31.7107 308.691 31.7106C308.47 31.7106 308.309 31.7534 308.201 31.8422C308.092 31.9309 308.039 32.0558 308.039 32.2203C308.039 32.375 308.079 32.4901 308.161 32.5691C308.24 32.6512 308.355 32.6909 308.507 32.6909ZM311.148 33.0461C311.089 33.0461 311.049 33.0363 311.023 33.0131C310.997 32.9933 310.974 32.9475 310.954 32.885L310.181 30.3422C310.161 30.2763 310.151 30.2336 310.151 30.2104C310.151 30.1579 310.178 30.1284 310.23 30.1284H310.553C310.615 30.1284 310.658 30.1381 310.681 30.1613C310.707 30.1808 310.727 30.2269 310.747 30.2894L311.299 32.4672L311.813 30.2895C311.829 30.2238 311.849 30.1809 311.875 30.1613C311.901 30.1414 311.948 30.1283 312.007 30.1283H312.27C312.332 30.1283 312.375 30.1381 312.401 30.1613C312.428 30.1808 312.451 30.2269 312.464 30.2894L312.984 32.4934L313.553 30.2895C313.572 30.2238 313.596 30.1809 313.618 30.1613C313.645 30.1414 313.688 30.1283 313.747 30.1283H314.053C314.105 30.1283 314.135 30.1545 314.135 30.2104C314.135 30.2268 314.132 30.2434 314.128 30.2632C314.125 30.2831 314.119 30.3093 314.105 30.3452L313.313 32.8883C313.293 32.9539 313.27 32.9966 313.243 33.0164C313.217 33.0363 313.174 33.0495 313.118 33.0495H312.836C312.773 33.0495 312.73 33.0393 312.704 33.0165C312.678 32.9933 312.655 32.9506 312.642 32.8849L312.132 30.7631L311.625 32.8816C311.609 32.9475 311.589 32.9902 311.562 33.0131C311.536 33.0363 311.49 33.0461 311.431 33.0461H311.148ZM315.375 33.1349C315.204 33.1349 315.033 33.1151 314.868 33.0757C314.704 33.0363 314.576 32.9933 314.49 32.9441C314.437 32.9145 314.401 32.8816 314.388 32.852C314.375 32.823 314.369 32.7916 314.368 32.7598V32.592C314.368 32.5231 314.395 32.4901 314.444 32.4901C314.464 32.4901 314.484 32.4934 314.503 32.5002C314.523 32.5066 314.553 32.5197 314.585 32.5328C314.702 32.5839 314.823 32.6226 314.947 32.6481C315.079 32.6744 315.207 32.6875 315.339 32.6875C315.546 32.6875 315.707 32.6512 315.819 32.5789C315.931 32.5066 315.99 32.4013 315.99 32.2664C315.99 32.1742 315.961 32.0988 315.901 32.0363C315.842 31.9738 315.73 31.9178 315.569 31.8651L315.092 31.717C314.852 31.6413 314.674 31.5297 314.566 31.3816C314.457 31.2367 314.401 31.0756 314.401 30.9047C314.401 30.7664 314.431 30.6446 314.49 30.5394C314.549 30.4335 314.63 30.3415 314.727 30.2696C314.826 30.1942 314.938 30.1381 315.069 30.0987C315.201 30.0593 315.339 30.0428 315.484 30.0428C315.556 30.0428 315.632 30.0462 315.704 30.0559C315.78 30.0657 315.849 30.0788 315.918 30.092C315.983 30.1084 316.046 30.1249 316.105 30.1448C316.164 30.1645 316.211 30.1842 316.244 30.204C316.29 30.2302 316.323 30.2565 316.342 30.286C316.362 30.3125 316.372 30.3488 316.372 30.3947V30.5494C316.372 30.6184 316.345 30.6547 316.296 30.6547C316.27 30.6547 316.227 30.6413 316.171 30.6151C315.984 30.5296 315.773 30.4869 315.539 30.4869C315.352 30.4869 315.204 30.5165 315.102 30.5791C315 30.6413 314.947 30.7369 314.947 30.8717C314.947 30.9639 314.98 31.0429 315.046 31.1052C315.112 31.1677 315.234 31.2303 315.408 31.2861L315.875 31.4341C316.112 31.5098 316.283 31.6151 316.385 31.75C316.487 31.8849 316.536 32.0396 316.536 32.2106C316.536 32.3521 316.507 32.4803 316.451 32.592C316.392 32.704 316.312 32.8026 316.211 32.8816C316.109 32.9637 315.987 33.0229 315.846 33.0659C315.698 33.1117 315.543 33.1349 315.375 33.1349Z" fill="#252F3E"/>
<path d="M316.219 33.7303C315.873 33.7352 315.464 33.8125 315.155 34.0297C315.059 34.0987 315.076 34.1908 315.181 34.1776C315.533 34.1349 316.309 34.0428 316.447 34.2204C316.586 34.3946 316.293 35.1282 316.161 35.454C316.122 35.5524 316.207 35.5922 316.296 35.5165C316.875 35.0297 317.026 34.0132 316.908 33.8651C316.849 33.7929 316.565 33.7253 316.219 33.7303ZM307.127 33.9265C307.055 33.9355 307.022 34.023 307.099 34.0922C308.388 35.2564 310.096 35.9572 311.99 35.9572C313.342 35.9572 314.915 35.533 315.997 34.7337C316.174 34.6019 316.02 34.4014 315.839 34.4834C314.625 34.9967 313.306 35.2467 312.105 35.2467C310.326 35.2467 308.605 34.7566 307.211 33.9473C307.18 33.9292 307.152 33.9235 307.128 33.9265H307.127Z" fill="#FF9900"/>
<path d="M326.131 36H325.199L327.293 30.1818H328.307L330.401 36H329.469L327.824 31.2386H327.778L326.131 36ZM326.287 33.7216H329.31V34.4602H326.287V33.7216ZM331.572 36L330.288 31.6364H331.165L332.021 34.8409H332.063L332.921 31.6364H333.799L334.651 34.8267H334.694L335.543 31.6364H336.421L335.14 36H334.273L333.387 32.8494H333.322L332.435 36H331.572ZM340.497 32.7017L339.727 32.8381C339.695 32.7396 339.644 32.6458 339.574 32.5568C339.506 32.4678 339.413 32.3949 339.295 32.3381C339.178 32.2812 339.031 32.2528 338.855 32.2528C338.615 32.2528 338.414 32.3068 338.253 32.4148C338.092 32.5208 338.011 32.6581 338.011 32.8267C338.011 32.9725 338.065 33.09 338.173 33.179C338.281 33.268 338.455 33.3409 338.696 33.3977L339.389 33.5568C339.791 33.6496 340.09 33.7926 340.287 33.9858C340.484 34.179 340.582 34.4299 340.582 34.7386C340.582 35 340.507 35.233 340.355 35.4375C340.205 35.6402 339.996 35.7992 339.727 35.9148C339.46 36.0303 339.151 36.0881 338.798 36.0881C338.31 36.0881 337.911 35.9839 337.602 35.7756C337.294 35.5653 337.104 35.267 337.034 34.8807L337.855 34.7557C337.906 34.9697 338.011 35.1316 338.17 35.2415C338.33 35.3494 338.537 35.4034 338.793 35.4034C339.071 35.4034 339.294 35.3456 339.46 35.2301C339.627 35.1127 339.71 34.9697 339.71 34.8011C339.71 34.6648 339.659 34.5502 339.557 34.4574C339.456 34.3646 339.302 34.2945 339.094 34.2472L338.355 34.0852C337.948 33.9924 337.647 33.8447 337.452 33.642C337.259 33.4394 337.162 33.1828 337.162 32.8722C337.162 32.6146 337.234 32.3892 337.378 32.196C337.522 32.0028 337.721 31.8523 337.974 31.7443C338.228 31.6345 338.519 31.5795 338.847 31.5795C339.318 31.5795 339.689 31.6818 339.96 31.8864C340.231 32.089 340.41 32.3608 340.497 32.7017Z" fill="#636363"/>
<path d="M71 125H90.5C94 125 97 127 97.5 130.5C98.0701 134.491 98.882 138.264 100 140.5C101 142.5 101.982 144 109 144C114.5 144 159.667 143.833 168 144" stroke="#DCDCDC" stroke-opacity="0.7"/>
<path d="M71 125H90.5C94 125 97 127 97.5 130.5C98.0701 134.491 98.882 138.264 100 140.5C101 142.5 101.982 144 109 144C114.5 144 132.667 143.833 141 144" stroke="url(#paint9_linear_1_158)"/>
<path d="M288 125H268.5C265 125 262 127 261.5 130.5C260.93 134.491 260.118 138.264 259 140.5C258 142.5 257.018 144 250 144C244.5 144 196.333 143.833 188 144" stroke="#DCDCDC" stroke-opacity="0.7"/>
<path d="M288 125H268.5C265 125 262 127 261.5 130.5C260.93 134.491 260.118 138.264 259 140.5C258 142.5 257.018 144 250 144C244.5 144 226.333 143.833 218 144" stroke="url(#paint10_linear_1_158)"/>
<path d="M176 100V24.5" stroke="#C9C9C9" stroke-opacity="0.7"/>
<path d="M176 100V24.5" stroke="url(#paint11_linear_1_158)"/>
<circle cx="178" cy="127" r="20" fill="#3B69FB"/>
<path d="M174.842 138.252V129.505H173.768H172.695L172.691 138.176L172.687 146.847L166.343 140.464L160 134.082L169.029 125.041L173.107 120.958C175.84 118.22 180.276 118.219 183.011 120.955L187.029 124.975L196 133.951L189.637 140.325L183.275 146.699L183.193 138.102L183.112 129.505H182.043H180.975V138.252V147H180.055H179.135V136.257V125.515H178.061H176.988V136.257V147H175.915H174.842V138.252Z" fill="white"/>
<circle cx="178" cy="113" r="3" fill="white"/>
<defs>
<linearGradient id="paint0_linear_1_158" x1="69" y1="31.5" x2="110" y2="121" gradientUnits="userSpaceOnUse">
<stop stop-color="#362DB9"/>
<stop offset="1" stop-color="#636363" stop-opacity="0"/>
</linearGradient>
<linearGradient id="paint1_linear_1_158" x1="286" y1="31.5" x2="245" y2="121" gradientUnits="userSpaceOnUse">
<stop stop-color="#362DB9"/>
<stop offset="1" stop-color="#636363" stop-opacity="0"/>
</linearGradient>
<linearGradient id="paint2_linear_1_158" x1="28" y1="21" x2="28" y2="74.5" gradientUnits="userSpaceOnUse">
<stop stop-color="white" stop-opacity="0.7"/>
<stop offset="1" stop-color="#999999" stop-opacity="0.7"/>
</linearGradient>
<linearGradient id="paint3_linear_1_158" x1="38" y1="111" x2="38" y2="164.5" gradientUnits="userSpaceOnUse">
<stop stop-color="white" stop-opacity="0.7"/>
<stop offset="1" stop-color="#999999" stop-opacity="0.7"/>
</linearGradient>
<linearGradient id="paint4_linear_1_158" x1="316" y1="111" x2="316" y2="164.5" gradientUnits="userSpaceOnUse">
<stop stop-color="white" stop-opacity="0.7"/>
<stop offset="1" stop-color="#999999" stop-opacity="0.7"/>
</linearGradient>
<linearGradient id="paint5_linear_1_158" x1="428.812" y1="491.52" x2="1116.54" y2="526.255" gradientUnits="userSpaceOnUse">
<stop stop-color="#0064E1"/>
<stop offset="0.4" stop-color="#0064E1"/>
<stop offset="0.83" stop-color="#0073EE"/>
<stop offset="1" stop-color="#0082FB"/>
</linearGradient>
<linearGradient id="paint6_linear_1_158" x1="457.489" y1="603.376" x2="457.489" y2="349.519" gradientUnits="userSpaceOnUse">
<stop stop-color="#0082FB"/>
<stop offset="1" stop-color="#0064E0"/>
</linearGradient>
<linearGradient id="paint7_linear_1_158" x1="173.213" y1="0" x2="173.213" y2="53.5" gradientUnits="userSpaceOnUse">
<stop stop-color="white" stop-opacity="0.7"/>
<stop offset="1" stop-color="#999999" stop-opacity="0.7"/>
</linearGradient>
<linearGradient id="paint8_linear_1_158" x1="322" y1="21" x2="322" y2="74.5" gradientUnits="userSpaceOnUse">
<stop stop-color="white" stop-opacity="0.7"/>
<stop offset="1" stop-color="#999999" stop-opacity="0.7"/>
</linearGradient>
<linearGradient id="paint9_linear_1_158" x1="71" y1="134.5" x2="105.5" y2="156" gradientUnits="userSpaceOnUse">
<stop stop-color="#362DB9"/>
<stop offset="1" stop-color="#767676" stop-opacity="0"/>
</linearGradient>
<linearGradient id="paint10_linear_1_158" x1="288" y1="134.5" x2="253.5" y2="156" gradientUnits="userSpaceOnUse">
<stop stop-color="#362DB9"/>
<stop offset="1" stop-color="#767676" stop-opacity="0"/>
</linearGradient>
<linearGradient id="paint11_linear_1_158" x1="176.5" y1="24.5" x2="176.5" y2="100" gradientUnits="userSpaceOnUse">
<stop stop-color="#362DB9"/>
<stop offset="1" stop-color="#666666" stop-opacity="0"/>
</linearGradient>
<clipPath id="clip0_1_158">
<rect width="10" height="10" fill="white" transform="translate(13 28)"/>
</clipPath>
<clipPath id="clip1_1_158">
<rect width="10" height="4.17969" fill="white" transform="translate(22 121)"/>
</clipPath>
<clipPath id="clip2_1_158">
<rect width="10" height="6.67969" fill="white" transform="translate(301 120)"/>
</clipPath>
<clipPath id="clip3_1_158">
<rect width="10" height="8.51562" fill="white" transform="translate(154 8)"/>
</clipPath>
</defs>
</svg>
