<svg width="36" height="37" viewBox="0 0 36 37" fill="none" xmlns="http://www.w3.org/2000/svg">
<path d="M14.8416 28.2525V19.505H13.7683H12.695L12.6908 28.1758L12.6867 36.8465L6.34334 30.4641L0 24.0817L9.02881 15.0408L13.1067 10.9575C15.8403 8.22028 20.2759 8.21932 23.0107 10.9554L27.0288 14.9754L36 23.9508L29.6373 30.3249L23.2746 36.699L23.1931 28.102L23.1117 19.505H22.0432H20.9747V28.2525V37H20.0547H19.1347V26.2574V15.5149H18.0615H16.9882V26.2574V37H15.9149H14.8416V28.2525Z" fill="url(#paint0_linear_1_156)"/>
<circle cx="18" cy="3" r="3" fill="url(#paint1_linear_1_156)"/>
<defs>
<linearGradient id="paint0_linear_1_156" x1="18" y1="6" x2="18" y2="36.5811" gradientUnits="userSpaceOnUse">
<stop stop-color="#3B69FB"/>
<stop offset="1" stop-color="#233E95"/>
</linearGradient>
<linearGradient id="paint1_linear_1_156" x1="18" y1="0" x2="18" y2="5.91892" gradientUnits="userSpaceOnUse">
<stop stop-color="#3B69FB"/>
<stop offset="1" stop-color="#233E95"/>
</linearGradient>
</defs>
</svg>
